<mxfile host="app.diagrams.net" modified="2024-06-23T14:37:21.516Z" agent="Mozilla/5.0 (Windows NT 10.0; Win64; x64) AppleWebKit/537.36 (KHTML, like Gecko) Chrome/126.0.0.0 Safari/537.36" version="24.6.2" etag="VIFeYWb5CHUIS_aEr8hQ" type="github">
  <diagram name="Page-1" id="-pzjGoT4oe2uqOFF3yGi">
    <mxGraphModel>
      <root>
        <mxCell id="0" />
        <mxCell id="1" parent="0" />
      </root>
    </mxGraphModel>
  </diagram>
</mxfile>
